<svg width="113" height="113" viewBox="0 0 113 113" fill="none" xmlns="http://www.w3.org/2000/svg">
    <mask id="mask0_715_676361" style="mask-type:alpha" maskUnits="userSpaceOnUse" x="11" y="6"
        width="102" height="102">
        <circle cx="62" cy="57" r="50.5" transform="rotate(90 62 57)" fill="#D9D9D9"
            stroke="currentColor" />
    </mask>
    <g mask="url(#mask0_715_676361)">
        <line x1="18" y1="12.75" x2="104" y2="12.75" stroke="currentColor" stroke-width="0.5" />
        <line x1="11" y1="24.75" x2="111" y2="24.75" stroke="currentColor" stroke-width="0.5" />
        <line x1="5" y1="36.75" x2="17" y2="36.75" stroke="currentColor" stroke-width="0.5" />
        <line x1="103" y1="36.75" x2="115" y2="36.75" stroke="currentColor" stroke-width="0.5" />
        <line x1="107" y1="39.75" x2="119" y2="39.75" stroke="currentColor" stroke-width="0.5" />
        <line x1="5" y1="48.75" x2="21" y2="48.75" stroke="currentColor" stroke-width="0.5" />
        <line x1="107" y1="48.75" x2="123" y2="48.75" stroke="currentColor" stroke-width="0.5" />
        <line x1="5" y1="60.75" x2="19" y2="60.75" stroke="currentColor" stroke-width="0.5" />
        <line x1="38" y1="64.75" x2="74" y2="64.75" stroke="currentColor" stroke-width="0.5" />
        <line x1="78" y1="60.75" x2="119" y2="60.75" stroke="currentColor" stroke-width="0.5" />
        <line x1="5" y1="72.75" x2="28" y2="72.75" stroke="currentColor" stroke-width="0.5" />
        <line x1="45" y1="74.75" x2="99" y2="74.75" stroke="currentColor" stroke-width="0.5" />
        <line x1="78" y1="69.75" x2="95" y2="69.75" stroke="currentColor" stroke-width="0.5" />
        <line x1="36" y1="8.75" x2="53" y2="8.75" stroke="currentColor" stroke-width="0.5" />
        <line x1="52" y1="92.75" x2="61" y2="92.75" stroke="currentColor" stroke-width="0.5" />
        <line x1="5" y1="84.75" x2="36" y2="84.75" stroke="currentColor" stroke-width="0.5" />
        <line x1="72" y1="87.75" x2="93" y2="87.75" stroke="currentColor" stroke-width="0.5" />
        <line x1="53" y1="83.75" x2="85" y2="83.75" stroke="currentColor" stroke-width="0.5" />
        <line x1="5" y1="96.75" x2="34" y2="96.75" stroke="currentColor" stroke-width="0.5" />
        <line x1="48" y1="96.75" x2="108" y2="96.75" stroke="currentColor" stroke-width="0.5" />
    </g>
    <circle cx="30.5" cy="29.5" r="4.25" fill="white" stroke="currentColor" stroke-width="0.5" />
    <circle cx="61" cy="12" r="3.75" fill="white" stroke="currentColor" stroke-width="0.5" />
    <circle cx="28" cy="86" r="2.75" fill="white" stroke="currentColor" stroke-width="0.5" />
    <circle cx="91.5" cy="91.5" r="2.25" fill="white" stroke="currentColor" stroke-width="0.5" />
    <path
        d="M36 0C36 2.81022 33.7612 5.08863 31 5.08863C33.7031 5.08863 35.9047 7.27151 35.9965 10H36.0035C36.0953 7.27151 38.2969 5.08863 41 5.08863C38.2383 5.08863 36 2.81022 36 0Z"
        fill="black" />
    <path
        d="M106.5 63C106.5 64.4051 105.381 65.5443 104 65.5443C105.352 65.5443 106.452 66.6358 106.498 68H106.502C106.548 66.6358 107.648 65.5443 109 65.5443C107.619 65.5443 106.5 64.4051 106.5 63Z"
        fill="black" />
    <path
        d="M3.5 60C3.5 61.9672 1.93286 63.562 0 63.562C1.89215 63.562 3.43331 65.0901 3.49754 67H3.50246C3.56669 65.0901 5.10785 63.562 7 63.562C5.06679 63.562 3.5 61.9672 3.5 60Z"
        fill="black" />
    <path
        d="M74.5 76C74.5 77.9672 72.9329 79.562 71 79.562C72.8921 79.562 74.4333 81.0901 74.4975 83H74.5025C74.5667 81.0901 76.1079 79.562 78 79.562C76.0668 79.562 74.5 77.9672 74.5 76Z"
        fill="black" />
    <path d="M34.5 22H74L85 57.5L46 58L34.5 22Z" fill="white" />
    <path d="M73 20H104.5L92 40L83.5 53.5L73 20Z" fill="white" />
    <path d="M73 20L95.5 34L107.5 53.5L83 54L73 20Z" fill="white" />
    <path d="M18 18H33L44.5 51.5H28.5L18 18Z" fill="white" />
    <line x1="16.2385" y1="10.9252" x2="48.2385" y2="112.925" stroke="currentColor"
        stroke-width="0.5" />
    <line x1="14.2385" y1="10.9252" x2="46.2385" y2="112.925" stroke="currentColor"
        stroke-width="0.5" />
    <line x1="33.2378" y1="17.9227" x2="46.2378" y2="57.9227" stroke="currentColor"
        stroke-width="0.5" />
    <line x1="73.2384" y1="19.9247" x2="85.2384" y2="57.9247" stroke="currentColor"
        stroke-width="0.5" />
    <path d="M18.5 17.75L33 17.75" stroke="currentColor" stroke-width="0.5" />
    <line x1="29" y1="51.75" x2="44" y2="51.75" stroke="currentColor" stroke-width="0.5" />
    <line x1="107.786" y1="54.1286" x2="95.7856" y2="34.1286" stroke="currentColor"
        stroke-width="0.5" />
    <path d="M96 34L105 19.5" stroke="currentColor" stroke-width="0.5" />
    <line x1="73" y1="19.75" x2="105" y2="19.75" stroke="currentColor" stroke-width="0.5" />
    <line x1="84" y1="53.75" x2="108" y2="53.75" stroke="currentColor" stroke-width="0.5" />
    <line x1="34" y1="21.75" x2="74" y2="21.75" stroke="currentColor" stroke-width="0.5" />
    <line x1="46" y1="57.75" x2="85" y2="57.75" stroke="currentColor" stroke-width="0.5" />
    <circle cx="15.5" cy="11.5" r="2.25" fill="white" stroke="currentColor" stroke-width="0.5" />
    <path
        d="M60 50.75C57.8739 50.75 55.7955 50.1195 54.0276 48.9383C52.2598 47.7571 50.8819 46.0782 50.0683 44.1138C49.2547 42.1495 49.0418 39.9881 49.4566 37.9028C49.8714 35.8175 50.8952 33.902 52.3986 32.3986C53.902 30.8952 55.8175 29.8714 57.9028 29.4566C59.9881 29.0418 62.1495 29.2547 64.1138 30.0683C66.0782 30.8819 67.7571 32.2598 68.9383 34.0276C70.1195 35.7955 70.75 37.8739 70.75 40C70.7465 42.85 69.6128 45.5823 67.5975 47.5975C65.5823 49.6128 62.85 50.7465 60 50.75Z"
        fill="white" stroke="currentColor" stroke-width="0.5" />
    <mask id="path-48-inside-1_715_676361" fill="white">
        <path fill-rule="evenodd" clip-rule="evenodd"
            d="M63.5597 35.5102L61.674 34.4215C61.0098 34.038 59.9982 34.2624 59.7024 35.0355L59.6757 35.1036C59.6155 35.2147 59.5668 35.3292 59.5311 35.4228L55.8683 44.7844C55.7094 45.2006 55.8766 45.6706 56.2626 45.8931C56.6486 46.1156 57.1391 46.0247 57.4196 45.6785L63.8646 37.727C63.9183 37.6607 63.9619 37.588 63.9946 37.511C64.5542 36.8465 64.2232 35.8933 63.5597 35.5102Z" />
    </mask>
    <path fill-rule="evenodd" clip-rule="evenodd"
        d="M63.5597 35.5102L61.674 34.4215C61.0098 34.038 59.9982 34.2624 59.7024 35.0355L59.6757 35.1036C59.6155 35.2147 59.5668 35.3292 59.5311 35.4228L55.8683 44.7844C55.7094 45.2006 55.8766 45.6706 56.2626 45.8931C56.6486 46.1156 57.1391 46.0247 57.4196 45.6785L63.8646 37.727C63.9183 37.6607 63.9619 37.588 63.9946 37.511C64.5542 36.8465 64.2232 35.8933 63.5597 35.5102Z"
        fill="black" />
    <path
        d="M61.674 34.4215L61.924 33.9884L61.924 33.9884L61.674 34.4215ZM63.5597 35.5102L63.8097 35.0772L63.8097 35.0772L63.5597 35.5102ZM59.7024 35.0355L60.1679 35.218L60.1694 35.2142L59.7024 35.0355ZM59.6757 35.1036L60.1153 35.3419L60.13 35.3148L60.1412 35.2861L59.6757 35.1036ZM59.5311 35.4228L59.9968 35.6049L59.9982 35.6011L59.5311 35.4228ZM55.8683 44.7844L55.4027 44.6022L55.4012 44.6061L55.8683 44.7844ZM56.2626 45.8931L56.0129 46.3263L56.0129 46.3263L56.2626 45.8931ZM57.4196 45.6785L57.0312 45.3637L57.0312 45.3637L57.4196 45.6785ZM63.8646 37.727L63.4762 37.4122L63.4762 37.4122L63.8646 37.727ZM63.9946 37.511L63.6121 37.189L63.5638 37.2463L63.5345 37.3153L63.9946 37.511ZM61.424 34.8545L63.3097 35.9432L63.8097 35.0772L61.924 33.9884L61.424 34.8545ZM60.1694 35.2142C60.2507 35.0016 60.4354 34.8464 60.6854 34.7762C60.9409 34.7043 61.2192 34.7363 61.424 34.8545L61.924 33.9884C61.4646 33.7232 60.905 33.6757 60.4148 33.8135C59.919 33.9528 59.4499 34.2964 59.2354 34.8569L60.1694 35.2142ZM60.1412 35.2861L60.1679 35.218L59.2369 34.8531L59.2102 34.9212L60.1412 35.2861ZM59.2362 34.8653C59.1621 35.0019 59.1046 35.138 59.064 35.2445L59.9982 35.6011C60.029 35.5204 60.0689 35.4275 60.1153 35.3419L59.2362 34.8653ZM59.0655 35.2406L55.4027 44.6022L56.3339 44.9666L59.9967 35.6049L59.0655 35.2406ZM55.4012 44.6061C55.1547 45.2519 55.414 45.9811 56.0129 46.3263L56.5123 45.46C56.3391 45.3602 56.2642 45.1494 56.3354 44.9627L55.4012 44.6061ZM56.0129 46.3263C56.6118 46.6715 57.3728 46.5304 57.808 45.9934L57.0312 45.3637C56.9054 45.5189 56.6854 45.5597 56.5123 45.4599L56.0129 46.3263ZM57.808 45.9934L64.2531 38.0418L63.4762 37.4122L57.0312 45.3637L57.808 45.9934ZM64.2531 38.0418C64.3364 37.9391 64.4039 37.8261 64.4547 37.7068L63.5345 37.3153C63.5198 37.3498 63.5003 37.3824 63.4762 37.4122L64.2531 38.0418ZM63.3097 35.9432C63.778 36.2136 63.9196 36.8239 63.6121 37.189L64.377 37.8331C65.1887 36.8692 64.6685 35.573 63.8097 35.0772L63.3097 35.9432Z"
        fill="black" mask="url(#path-48-inside-1_715_676361)" />
    <path
        d="M63.75 74C63.75 76.0711 62.0711 77.75 60 77.75C57.9289 77.75 56.25 76.0711 56.25 74C56.25 71.9289 57.9289 70.25 60 70.25C62.0711 70.25 63.75 71.9289 63.75 74Z"
        fill="white" stroke="currentColor" stroke-width="0.5" />
</svg>