<svg width="223" height="223" viewBox="0 0 223 223" fill="none" xmlns="http://www.w3.org/2000/svg">
    <mask id="mask0_975_144470" style="mask-type:alpha" maskUnits="userSpaceOnUse" x="21" y="11"
        width="202" height="203">
        <circle cx="122.354" cy="112.486" r="99.6947" transform="rotate(90 122.354 112.486)"
            fill="#D9D9D9" stroke="black" stroke-width="1.90265" />
    </mask>
    <g mask="url(#mask0_975_144470)">
        <line x1="35.5234" y1="25.1786" x2="205.24" y2="25.1786" stroke="black"
            stroke-width="0.951327" />
        <line x1="21.707" y1="48.8603" x2="219.052" y2="48.8603" stroke="black"
            stroke-width="0.951327" />
        <line x1="9.86719" y1="72.5419" x2="33.5486" y2="72.5419" stroke="black"
            stroke-width="0.951327" />
        <line x1="203.266" y1="72.5419" x2="226.947" y2="72.5419" stroke="black"
            stroke-width="0.951327" />
        <line x1="211.16" y1="78.4618" x2="234.842" y2="78.4618" stroke="black"
            stroke-width="0.951327" />
        <line x1="9.86719" y1="96.2236" x2="41.4424" y2="96.2236" stroke="black"
            stroke-width="0.951327" />
        <line x1="211.16" y1="96.2236" x2="242.735" y2="96.2236" stroke="black"
            stroke-width="0.951327" />
        <line x1="9.86719" y1="119.903" x2="37.4955" y2="119.903" stroke="black"
            stroke-width="0.951327" />
        <line x1="74.9922" y1="127.798" x2="146.036" y2="127.798" stroke="black"
            stroke-width="0.951327" />
        <line x1="153.93" y1="119.903" x2="234.841" y2="119.903" stroke="black"
            stroke-width="0.951327" />
        <line x1="9.86719" y1="143.585" x2="55.2566" y2="143.585" stroke="black"
            stroke-width="0.951327" />
        <line x1="88.8047" y1="147.532" x2="195.371" y2="147.532" stroke="black"
            stroke-width="0.951327" />
        <line x1="153.93" y1="137.665" x2="187.478" y2="137.665" stroke="black"
            stroke-width="0.951327" />
        <line x1="71.043" y1="17.2841" x2="104.592" y2="17.2841" stroke="black"
            stroke-width="0.951327" />
        <line x1="102.617" y1="183.054" x2="120.378" y2="183.054" stroke="black"
            stroke-width="0.951327" />
        <line x1="9.86719" y1="167.267" x2="71.0442" y2="167.267" stroke="black"
            stroke-width="0.951327" />
        <line x1="142.09" y1="173.186" x2="317.727" y2="173.186" stroke="black"
            stroke-width="0.951327" />
        <line x1="104.594" y1="165.294" x2="167.744" y2="165.294" stroke="black"
            stroke-width="0.951327" />
        <line x1="9.86719" y1="190.948" x2="67.0973" y2="190.948" stroke="black"
            stroke-width="0.951327" />
        <line x1="94.7266" y1="190.948" x2="213.134" y2="190.948" stroke="black"
            stroke-width="0.951327" />
    </g>
    <circle cx="60.193" cy="58.2165" r="8.40487" fill="white" stroke="black" stroke-width="0.951327" />
    <circle cx="120.378" cy="23.6809" r="7.41814" fill="#6CFF95" stroke="black"
        stroke-width="0.951327" />
    <circle cx="55.2563" cy="169.717" r="5.44469" fill="#6CFF95" stroke="black"
        stroke-width="0.951327" />
    <circle cx="180.57" cy="180.57" r="4.45796" fill="#6CFF95" stroke="black"
        stroke-width="0.951327" />
    <path
        d="M71.0469 0C71.0469 5.54584 66.6288 10.0422 61.1797 10.0422C66.5141 10.0422 70.8589 14.35 71.04 19.7345H71.0539C71.2349 14.35 75.5798 10.0422 80.9142 10.0422C75.4641 10.0422 71.0469 5.54584 71.0469 0Z"
        fill="black" />
    <path
        d="M210.172 124.328C210.172 127.101 207.963 129.349 205.238 129.349C207.905 129.349 210.078 131.503 210.168 134.195H210.175C210.266 131.503 212.438 129.349 215.106 129.349C212.38 129.349 210.172 127.101 210.172 124.328Z"
        fill="black" />
    <path
        d="M6.90708 118.406C6.90708 122.288 3.81441 125.436 0 125.436C3.73406 125.436 6.77548 128.451 6.90223 132.22H6.91193C7.03868 128.451 10.0801 125.436 13.8142 125.436C9.99906 125.436 6.90708 122.288 6.90708 118.406Z"
        fill="black" />
    <path
        d="M147.02 149.982C147.02 153.865 143.928 157.012 140.113 157.012C143.847 157.012 146.889 160.027 147.016 163.797H147.025C147.152 160.027 150.193 157.012 153.927 157.012C150.112 157.012 147.02 153.865 147.02 149.982Z"
        fill="black" />
    <path d="M68.0859 43.418H146.037L167.745 113.475L90.7806 114.462L68.0859 43.418Z" fill="#6CFF95" />
    <path d="M144.062 39.4707H206.226L181.558 78.9397L164.784 105.581L144.062 39.4707Z"
        fill="#6CFF95" />
    <path d="M144.062 39.4707L188.465 67.099L212.147 105.581L163.797 106.568L144.062 39.4707Z"
        fill="#6CFF95" />
    <path d="M35.5234 35.5234H65.1252L87.8199 101.634H56.2447L35.5234 35.5234Z" fill="#6CFF95" />
    <line x1="32.032" y1="21.5666" x2="95.1824" y2="222.859" stroke="black" stroke-width="0.951327" />
    <line x1="28.0828" y1="21.5666" x2="91.2332" y2="222.859" stroke="black" stroke-width="0.951327" />
    <line x1="65.5774" y1="35.3764" x2="91.2322" y2="114.314" stroke="black" stroke-width="0.951327" />
    <line x1="144.516" y1="39.3275" x2="168.197" y2="114.319" stroke="black" stroke-width="0.951327" />
    <path d="M36.5078 35.0293L65.1229 35.0293" stroke="black" stroke-width="0.951327" />
    <line x1="57.2344" y1="102.145" x2="86.8361" y2="102.145" stroke="black" stroke-width="0.951327" />
    <line x1="212.725" y1="106.811" x2="189.044" y2="67.3421" stroke="black" stroke-width="0.951327" />
    <path d="M189.453 67.0975L207.214 38.4824" stroke="black" stroke-width="0.951327" />
    <line x1="144.062" y1="38.995" x2="207.213" y2="38.995" stroke="black" stroke-width="0.951327" />
    <line x1="165.77" y1="106.091" x2="213.132" y2="106.091" stroke="black" stroke-width="0.951327" />
    <line x1="67.1016" y1="42.9404" x2="146.04" y2="42.9404" stroke="black" stroke-width="0.951327" />
    <line x1="90.7813" y1="113.985" x2="167.746" y2="113.985" stroke="black" stroke-width="0.951327" />
    <circle cx="30.5899" cy="22.6953" r="4.45796" fill="#6CFF95" stroke="black"
        stroke-width="0.951327" />
    <path
        d="M118.407 100.171C114.207 100.171 110.103 98.9254 106.611 96.5924C103.12 94.2594 100.398 90.9434 98.7911 87.0637C97.1841 83.184 96.7636 78.9149 97.5829 74.7962C98.4021 70.6776 100.424 66.8943 103.394 63.9249C106.363 60.9555 110.146 58.9334 114.265 58.1141C118.384 57.2949 122.653 57.7153 126.532 59.3224C130.412 60.9294 133.728 63.6508 136.061 67.1424C138.394 70.6339 139.639 74.7387 139.639 78.9379C139.633 84.5671 137.394 89.9638 133.413 93.9443C129.433 97.9248 124.036 100.164 118.407 100.171Z"
        fill="#6CFF95" stroke="black" stroke-width="0.951327" />
    <mask id="path-48-inside-1_975_144470" fill="white">
        <path fill-rule="evenodd" clip-rule="evenodd"
            d="M125.434 70.0786L121.712 67.9301C120.402 67.1734 118.405 67.6163 117.821 69.142L117.77 69.2729C117.65 69.4932 117.554 69.7205 117.483 69.9061L110.255 88.3808C109.941 89.2023 110.271 90.1298 111.033 90.5689C111.794 91.008 112.762 90.8285 113.316 90.1454L126.035 74.4534C126.141 74.323 126.226 74.1798 126.291 74.0285C127.397 72.7171 126.744 70.8349 125.434 70.0786Z" />
    </mask>
    <path fill-rule="evenodd" clip-rule="evenodd"
        d="M125.434 70.0786L121.712 67.9301C120.402 67.1734 118.405 67.6163 117.821 69.142L117.77 69.2729C117.65 69.4932 117.554 69.7205 117.483 69.9061L110.255 88.3808C109.941 89.2023 110.271 90.1298 111.033 90.5689C111.794 91.008 112.762 90.8285 113.316 90.1454L126.035 74.4534C126.141 74.323 126.226 74.1798 126.291 74.0285C127.397 72.7171 126.744 70.8349 125.434 70.0786Z"
        fill="black" />
    <path
        d="M121.712 67.9301L121.237 68.754V68.754L121.712 67.9301ZM125.434 70.0786L124.958 70.9025L125.434 70.0786ZM117.821 69.142L118.707 69.4892L118.71 69.4819L117.821 69.142ZM117.77 69.2729L118.606 69.7271L118.634 69.6752L118.656 69.6201L117.77 69.2729ZM117.483 69.9061L118.369 70.2528L118.372 70.2454L117.483 69.9061ZM110.255 88.3808L109.369 88.0342L109.366 88.0416L110.255 88.3808ZM111.033 90.5689L110.558 91.3931L110.558 91.3931L111.033 90.5689ZM113.316 90.1454L112.577 89.5464H112.577L113.316 90.1454ZM126.035 74.4534L126.774 75.0525V75.0525L126.035 74.4534ZM126.291 74.0285L125.564 73.4153L125.472 73.5243L125.416 73.6555L126.291 74.0285ZM121.237 68.754L124.958 70.9025L125.909 69.2548L122.188 67.1062L121.237 68.754ZM118.71 69.4819C118.875 69.05 119.25 68.7371 119.752 68.596C120.264 68.4519 120.824 68.5155 121.237 68.754L122.188 67.1062C121.29 66.588 120.196 66.4947 119.237 66.7643C118.267 67.0369 117.351 67.7082 116.933 68.802L118.71 69.4819ZM118.656 69.6201L118.707 69.4892L116.936 68.7948L116.884 68.9257L118.656 69.6201ZM116.934 68.8187C116.788 69.0878 116.674 69.3567 116.594 69.5669L118.372 70.2454C118.433 70.0844 118.513 69.8986 118.606 69.7271L116.934 68.8187ZM116.597 69.5595L109.369 88.0342L111.141 88.7275L118.369 70.2527L116.597 69.5595ZM109.366 88.0416C108.886 89.2998 109.391 90.7206 110.558 91.3931L111.508 89.7447C111.151 89.5391 110.997 89.1047 111.143 88.7201L109.366 88.0416ZM110.558 91.3931C111.724 92.0657 113.207 91.7907 114.055 90.7444L112.577 89.5464C112.318 89.8662 111.864 89.9503 111.508 89.7447L110.558 91.3931ZM114.055 90.7444L126.774 75.0525L125.296 73.8544L112.577 89.5464L114.055 90.7444ZM126.774 75.0525C126.936 74.8527 127.067 74.6334 127.166 74.4015L125.416 73.6555C125.386 73.7263 125.345 73.7933 125.296 73.8544L126.774 75.0525ZM124.958 70.9025C125.896 71.4442 126.189 72.6735 125.564 73.4153L127.018 74.6417C128.604 72.7606 127.591 70.2256 125.909 69.2548L124.958 70.9025Z"
        fill="black" mask="url(#path-48-inside-1_975_144470)" />
    <path
        d="M125.828 146.034C125.828 150.131 122.506 153.453 118.409 153.453C114.313 153.453 110.991 150.131 110.991 146.034C110.991 141.938 114.313 138.616 118.409 138.616C122.506 138.616 125.828 141.938 125.828 146.034Z"
        fill="#6CFF95" stroke="black" stroke-width="0.951327" />
</svg>
    