<svg width="39" height="39" viewBox="0 0 39 39" fill="none" xmlns="http://www.w3.org/2000/svg">
    <rect width="39" height="39" rx="8" fill="black" />
    <path
        d="M28.0101 11.5019C26.3529 10.7415 24.5759 10.1813 22.7179 9.86048C22.6841 9.85428 22.6503 9.86976 22.6328 9.90071C22.4043 10.3072 22.1511 10.8375 21.9739 11.2543C19.9754 10.9551 17.9873 10.9551 16.0298 11.2543C15.8525 10.8282 15.5902 10.3072 15.3606 9.90071C15.3432 9.87079 15.3094 9.85532 15.2756 9.86048C13.4186 10.1803 11.6415 10.7405 9.98335 11.5019C9.96899 11.5081 9.95669 11.5184 9.94852 11.5318C6.57784 16.5676 5.65447 21.4795 6.10745 26.3306C6.10949 26.3543 6.12282 26.377 6.14126 26.3914C8.36514 28.0246 10.5193 29.0161 12.6336 29.6732C12.6674 29.6836 12.7032 29.6712 12.7248 29.6433C13.2249 28.9604 13.6707 28.2402 14.0529 27.4829C14.0755 27.4386 14.054 27.386 14.0079 27.3684C13.3007 27.1002 12.6274 26.7731 11.9797 26.4017C11.9285 26.3718 11.9244 26.2985 11.9715 26.2635C12.1078 26.1613 12.2441 26.0551 12.3743 25.9478C12.3978 25.9282 12.4306 25.924 12.4583 25.9364C16.7134 27.8791 21.32 27.8791 25.5249 25.9364C25.5525 25.923 25.5854 25.9272 25.6099 25.9467C25.7401 26.054 25.8764 26.1613 26.0137 26.2635C26.0609 26.2985 26.0578 26.3718 26.0066 26.4017C25.3589 26.7804 24.6855 27.1002 23.9774 27.3674C23.9313 27.3849 23.9108 27.4386 23.9333 27.4829C24.3238 28.2392 24.7696 28.9593 25.2605 29.6423C25.281 29.6712 25.3179 29.6836 25.3517 29.6732C27.4761 29.0161 29.6303 28.0246 31.8542 26.3914C31.8737 26.377 31.886 26.3553 31.8881 26.3316C32.4302 20.7232 30.98 15.8516 28.0439 11.5329C28.0367 11.5184 28.0245 11.5081 28.0101 11.5019ZM14.6884 23.3768C13.4073 23.3768 12.3517 22.2007 12.3517 20.7563C12.3517 19.3119 13.3868 18.1358 14.6884 18.1358C16.0001 18.1358 17.0455 19.3222 17.025 20.7563C17.025 22.2007 15.9899 23.3768 14.6884 23.3768ZM23.3276 23.3768C22.0466 23.3768 20.991 22.2007 20.991 20.7563C20.991 19.3119 22.0261 18.1358 23.3276 18.1358C24.6394 18.1358 25.6847 19.3222 25.6643 20.7563C25.6643 22.2007 24.6394 23.3768 23.3276 23.3768Z"
        fill="white" />
</svg>
    