<svg width="39" height="39" viewBox="0 0 39 39" fill="none" xmlns="http://www.w3.org/2000/svg">
    <rect width="39" height="39" rx="8" fill="black" />
    <g clip-path="url(#clip0_57_11740)">
        <path fill-rule="evenodd" clip-rule="evenodd"
            d="M33 20C33 27.1797 27.1797 33 20 33C12.8203 33 7 27.1797 7 20C7 12.8203 12.8203 7 20 7C27.1797 7 33 12.8203 33 20ZM20.4659 16.5972C19.2014 17.1231 16.6743 18.2116 12.8846 19.8628C12.2692 20.1075 11.9468 20.3469 11.9174 20.581C11.8678 20.9766 12.3633 21.1324 13.0379 21.3445C13.1297 21.3734 13.2248 21.4033 13.3223 21.435C13.986 21.6508 14.8789 21.9032 15.3431 21.9132C15.7641 21.9223 16.234 21.7487 16.7529 21.3925C20.2938 19.0023 22.1216 17.7941 22.2363 17.7681C22.3173 17.7497 22.4295 17.7266 22.5055 17.7942C22.5815 17.8617 22.574 17.9897 22.566 18.024C22.5169 18.2332 20.5721 20.0413 19.5657 20.9769C19.252 21.2686 19.0294 21.4755 18.9839 21.5228C18.882 21.6286 18.7781 21.7288 18.6783 21.825C18.0617 22.4194 17.5992 22.8652 18.7039 23.5932C19.2348 23.943 19.6596 24.2323 20.0834 24.5209C20.5462 24.8361 21.0078 25.1505 21.6051 25.542C21.7573 25.6417 21.9026 25.7453 22.0441 25.8462C22.5827 26.2302 23.0666 26.5752 23.6645 26.5202C24.0118 26.4882 24.3707 26.1616 24.5529 25.1874C24.9836 22.8851 25.8301 17.8967 26.0257 15.8411C26.0429 15.661 26.0213 15.4305 26.004 15.3293C25.9867 15.2281 25.9505 15.084 25.819 14.9772C25.6632 14.8508 25.4228 14.8242 25.3152 14.8261C24.8263 14.8347 24.0761 15.0956 20.4659 16.5972Z"
            fill="white" />
    </g>
    <defs>
        <clipPath id="clip0_57_11740">
            <rect width="26" height="26" fill="white" transform="translate(7 7)" />
        </clipPath>
    </defs>
</svg>
    